<?xml version="1.0" encoding="utf-8"?>
<!-- Generator: Adobe Illustrator 19.2.1, SVG Export Plug-In . SVG Version: 6.00 Build 0)  -->
<svg version="1.1" id="Layer_1" xmlns="http://www.w3.org/2000/svg" xmlns:xlink="http://www.w3.org/1999/xlink" x="0px" y="0px"
	 viewBox="0 0 100 100" style="enable-background:new 0 0 100 100;" xml:space="preserve">
<style type="text/css">
	.st0{fill:#D8D9D8;stroke:#D8D8D8;stroke-width:2;stroke-miterlimit:10;}
</style>
<g>
	<g>
		<path class="st0" d="M92,40.2l-6.6-1.1c-0.7-2.2-1.6-4.3-2.6-6.4l3.9-5.4c1.6-2.3,1.4-5.4-0.6-7.4L80.2,14
			c-1.1-1.1-2.5-1.7-4.1-1.7c-1.2,0-2.4,0.4-3.3,1.1l-5.4,3.9c-2.1-1.1-4.3-2-6.6-2.7l-1.1-6.5c-0.5-2.8-2.9-4.8-5.7-4.8h-8.2
			c-2.8,0-5.2,2-5.7,4.8L39,14.7c-2.2,0.7-4.3,1.6-6.3,2.7l-5.4-3.9c-1-0.7-2.1-1.1-3.4-1.1c-1.5,0-3,0.6-4.1,1.7L13.9,20
			c-2,2-2.3,5.1-0.6,7.4l3.9,5.5c-1.1,2.1-1.9,4.2-2.6,6.4l-6.5,1.1c-2.8,0.5-4.8,2.9-4.8,5.7v8.2c0,2.8,2,5.2,4.8,5.7l6.6,1.1
			c0.7,2.2,1.6,4.3,2.7,6.3l-3.8,5.4c-1.6,2.3-1.4,5.4,0.6,7.4L20,86c1.1,1.1,2.5,1.7,4.1,1.7c1.2,0,2.4-0.4,3.3-1.1l5.5-3.9
			c2,1,4,1.9,6.2,2.5l1.1,6.6c0.5,2.8,2.9,4.8,5.7,4.8h8.2c2.8,0,5.2-2,5.7-4.8l1.1-6.6c2.2-0.7,4.3-1.6,6.4-2.6l5.4,3.9
			c1,0.7,2.1,1.1,3.4,1.1l0,0c1.5,0,3-0.6,4.1-1.7l5.8-5.8c2-2,2.3-5.1,0.6-7.4l-3.9-5.4c1.1-2.1,2-4.2,2.6-6.4l6.6-1.1
			c2.8-0.5,4.8-2.9,4.8-5.7v-8.2C96.8,43.1,94.8,40.7,92,40.2z M91.5,54.1c0,0.3-0.2,0.5-0.4,0.5L82.9,56c-1,0.2-1.9,0.9-2.1,1.9
			c-0.7,2.9-1.9,5.6-3.4,8.2c-0.5,0.9-0.5,2,0.1,2.9l4.8,6.8c0.1,0.2,0.1,0.5-0.1,0.7l-5.8,5.8c-0.1,0.1-0.3,0.2-0.4,0.2
			s-0.2,0-0.3-0.1L69,77.5c-0.8-0.6-2-0.6-2.9-0.1c-2.6,1.5-5.3,2.7-8.2,3.4c-1,0.3-1.8,1.1-1.9,2.1l-1.4,8.2c0,0.3-0.3,0.4-0.5,0.4
			h-8.2c-0.3,0-0.5-0.2-0.5-0.4L44,82.9c-0.2-1-0.9-1.9-1.9-2.1c-2.8-0.7-5.5-1.8-8-3.3c-0.4-0.2-0.9-0.4-1.3-0.4
			c-0.5,0-1.1,0.2-1.5,0.5l-6.8,4.9c-0.1,0.1-0.2,0.1-0.3,0.1c-0.1,0-0.2,0-0.4-0.2L18,76.6c-0.2-0.2-0.2-0.4-0.1-0.7l4.8-6.7
			c0.6-0.9,0.6-2,0.1-2.9c-1.5-2.5-2.7-5.3-3.4-8.2c-0.3-1-1.1-1.8-2.1-1.9L9,54.8c-0.3,0-0.4-0.3-0.4-0.5v-8.2
			c0-0.3,0.2-0.5,0.4-0.5l8.1-1.4c1-0.2,1.9-0.9,2.1-2c0.7-2.9,1.8-5.6,3.3-8.2c0.5-0.9,0.5-2-0.1-2.9l-4.9-6.8
			c-0.1-0.2-0.1-0.5,0.1-0.7l5.8-5.8c0.1-0.1,0.3-0.2,0.4-0.2s0.2,0,0.3,0.1l6.7,4.8c0.9,0.6,2,0.6,2.9,0.1c2.5-1.5,5.3-2.7,8.2-3.4
			c1-0.3,1.8-1.1,1.9-2.1l1.4-8.3c0-0.3,0.3-0.4,0.5-0.4H54c0.3,0,0.5,0.2,0.5,0.4l1.4,8.1c0.2,1,0.9,1.9,2,2.1
			c2.9,0.7,5.8,1.9,8.4,3.4c0.9,0.5,2,0.5,2.9-0.1l6.7-4.8c0.1-0.1,0.2-0.1,0.3-0.1c0.1,0,0.2,0,0.4,0.2l5.8,5.8
			c0.2,0.2,0.2,0.4,0.1,0.7l-5,6.9c-0.6,0.8-0.6,2-0.1,2.9c1.5,2.6,2.7,5.3,3.4,8.2c0.3,1,1.1,1.8,2.1,1.9l8.2,1.4
			c0.3,0,0.4,0.3,0.4,0.5V54.1L91.5,54.1z"/>
		<path class="st0" d="M50,29.8c-11.1,0-20.2,9-20.2,20.2s9,20.2,20.2,20.2s20.2-9,20.2-20.2S61.1,29.8,50,29.8z M50,64.9
			c-8.2,0-14.9-6.7-14.9-14.9S41.8,35.1,50,35.1S64.9,41.8,64.9,50S58.2,64.9,50,64.9z"/>
	</g>
</g>
</svg>
